<svg xmlns="http://www.w3.org/2000/svg" viewBox="0 0 128 128" width="128" height="128" role="img">
<title>A hot thermometer</title>
<rect x="52" y="12" width="24" height="86" rx="12" fill="#ffffff" stroke="#6f8796" stroke-width="2.5"/>
<rect x="58" y="26.959999999999997" width="12" height="69.04" fill="#d6453a"/>
<circle cx="64" cy="104" r="15" fill="#d6453a" stroke="#8f2a22" stroke-width="2.5"/>
<path d="M76 30 h6 M76 44 h6 M76 58 h6 M76 72 h6 M76 86 h6" stroke="#6f8796" stroke-width="2" stroke-linecap="round"/>
<g stroke="#c9912a" stroke-width="2" stroke-linecap="round">
<path d="M118.3 24.0 L122.2 24.0"/>
<path d="M114.1 34.1 L116.8 36.8"/>
<path d="M104.0 38.3 L104.0 42.1"/>
<path d="M93.9 34.1 L91.2 36.8"/>
<path d="M89.7 24.0 L85.8 24.0"/>
<path d="M93.9 13.9 L91.2 11.2"/>
<path d="M104.0 9.7 L104.0 5.9"/>
<path d="M114.1 13.9 L116.8 11.2"/>
</g>
<circle cx="104" cy="24" r="11" fill="#f2c94c" stroke="#c9912a" stroke-width="2.5"/>
</svg>
