<svg xmlns="http://www.w3.org/2000/svg" viewBox="0 0 128 128" width="128" height="128" role="img">
<title>A student with a backpack and a book</title>
<rect x="34" y="84" width="60" height="42" rx="8" fill="#3f7cc0" stroke="#24507f" stroke-width="2.5" stroke-linejoin="round"/>
<g transform="translate(64 58) scale(1.35)">
<path d="M-17 44 V30 C-17 20 -10 16 0 16 C10 16 17 20 17 30 V44 Z" fill="#e0a526" stroke="#4a3a33" stroke-width="2.5" stroke-linejoin="round"/>
<circle r="12" fill="#f2c9a0" stroke="#b07a52" stroke-width="2.5" stroke-linejoin="round"/>
<path d="M-11 -2 C-12 -14 -4 -17 0 -17 C8 -17 12 -12 11 -2 C8 -9 -6 -10 -11 -2 Z" fill="#3b2f2a"/>
</g>
<path d="M50 82 V104 M78 82 V104" stroke="#24507f" stroke-width="5" stroke-linecap="round"/>
<path d="M48 104 L64 110 L80 104 V124 L64 128 L48 124 Z" fill="#d6453a" stroke="#8f2a22" stroke-width="2.5" stroke-linejoin="round"/>
<path d="M64 110 V128" stroke="#8f2a22" stroke-width="2"/>
</svg>
