<svg xmlns="http://www.w3.org/2000/svg" viewBox="0 0 128 128" width="128" height="128" role="img">
<title>Walking home in the evening</title>
<path d="M8 30 A12 12 0 0 1 32 30 Z" fill="#e0702c" stroke="#a84a18" stroke-width="2" stroke-linejoin="round"/><path d="M2 30 H38" stroke="#9fb0bb" stroke-width="2.5" stroke-linecap="round"/>
<g transform="translate(40 36) scale(.7)"><ellipse cx="64" cy="118" rx="46" ry="5" fill="#9fb0bb" opacity=".35"/>
<rect x="26" y="56" width="76" height="60" fill="#fbf1dc" stroke="#7d4f1e" stroke-width="3" stroke-linejoin="round"/>
<path d="M14 60 L64 16 L114 60 Z" fill="#d6453a" stroke="#8f2a22" stroke-width="3" stroke-linejoin="round"/>
<rect x="82" y="24" width="12" height="20" fill="#9c6528" stroke="#7d4f1e" stroke-width="2"/>
<rect x="54" y="80" width="22" height="36" rx="2" fill="#3f7cc0" stroke="#24507f" stroke-width="2.5"/>
<circle cx="71" cy="99" r="2" fill="#e0a526"/>
<rect x="34" y="70" width="14" height="14" fill="#fff6d8" stroke="#7d4f1e" stroke-width="2"/>
<rect x="84" y="70" width="12" height="14" fill="#fff6d8" stroke="#7d4f1e" stroke-width="2"/></g>
<ellipse cx="26" cy="118" rx="13" ry="4" fill="#9fb0bb" opacity=".35"/>
<g transform="translate(26 118)">
<path d="M-2 -20 L-9 -2 M2 -20 L8 -2" stroke="#4a5560" stroke-width="6" stroke-linecap="round"/>
<path d="M-4 -38 L-10 -24 M4 -38 L11 -25" stroke="#f2c9a0" stroke-width="4" stroke-linecap="round"/>
<path d="M-8 -40 Q0 -44 8 -40 L7 -18 H-7 Z" fill="#3f7cc0" stroke="#24507f" stroke-width="1.5" stroke-linejoin="round"/>
<circle cx="0" cy="-50" r="8" fill="#f2c9a0" stroke="#b07a52" stroke-width="1.5"/>
<path d="M-8 -51 C-8 -59 -3 -60 0 -60 C5 -60 9 -58 8 -51 C5 -55 -4 -56 -8 -51 Z" fill="#3b2f2a"/>
</g>
<path d="M50 104 H72" stroke="#e0a526" stroke-width="5" stroke-linecap="round"/>
<path d="M80 104 L69 96 V112 Z" fill="#e0a526" stroke="#9a6c0e" stroke-width="1.5" stroke-linejoin="round"/>
</svg>
