<svg xmlns="http://www.w3.org/2000/svg" viewBox="0 0 128 128" width="128" height="128" role="img">
<title>A double-decker tram</title>
<ellipse cx="64" cy="116" rx="42" ry="5" fill="#9fb0bb" opacity=".35"/>
<path d="M64 6 V20 M40 6 H104" stroke="#5f6f7a" stroke-width="2.5" stroke-linecap="round"/>
<rect x="24" y="20" width="80" height="88" rx="8" fill="#3a9a6e" stroke="#26684a" stroke-width="2.5" stroke-linejoin="round"/>
<path d="M24 62 H104" stroke="#f7f3e8" stroke-width="5"/>
<rect x="31" y="28" width="14" height="22" rx="2" fill="#bfe0f2" stroke="#24507f" stroke-width="1.5"/>
<rect x="48" y="28" width="14" height="22" rx="2" fill="#bfe0f2" stroke="#24507f" stroke-width="1.5"/>
<rect x="65" y="28" width="14" height="22" rx="2" fill="#bfe0f2" stroke="#24507f" stroke-width="1.5"/>
<rect x="82" y="28" width="14" height="22" rx="2" fill="#bfe0f2" stroke="#24507f" stroke-width="1.5"/>
<rect x="31" y="70" width="14" height="18" rx="2" fill="#bfe0f2" stroke="#24507f" stroke-width="1.5"/>
<rect x="48" y="70" width="14" height="18" rx="2" fill="#bfe0f2" stroke="#24507f" stroke-width="1.5"/>
<rect x="65" y="70" width="14" height="18" rx="2" fill="#bfe0f2" stroke="#24507f" stroke-width="1.5"/>
<rect x="82" y="70" width="14" height="18" rx="2" fill="#bfe0f2" stroke="#24507f" stroke-width="1.5"/>
<rect x="24" y="100" width="80" height="8" fill="#26684a"/>
<circle cx="42" cy="112" r="6" fill="#2a211b"/><circle cx="42" cy="112" r="2.4000000000000004" fill="#c8ced3"/>
<circle cx="86" cy="112" r="6" fill="#2a211b"/><circle cx="86" cy="112" r="2.4000000000000004" fill="#c8ced3"/>
</svg>
