<svg xmlns="http://www.w3.org/2000/svg" viewBox="0 0 128 128" width="128" height="128" role="img">
<title>3 boxes of 2 pills</title>
<rect x="19" y="34" width="26" height="60" rx="6" fill="#ffffff" stroke="#6f8796" stroke-width="2.5"/><g transform="translate(32 56)"><path d="M-9 -4.5 H0 V4.5 H-9 A4.5 4.5 0 0 1 -9 -4.5 Z" fill="#d6453a" stroke="#8f2a22" stroke-width="1.5"/><path d="M0 -4.5 H9 A4.5 4.5 0 0 1 9 4.5 H0 Z" fill="#ffffff" stroke="#8f2a22" stroke-width="1.5"/></g><g transform="translate(32 72)"><path d="M-9 -4.5 H0 V4.5 H-9 A4.5 4.5 0 0 1 -9 -4.5 Z" fill="#d6453a" stroke="#8f2a22" stroke-width="1.5"/><path d="M0 -4.5 H9 A4.5 4.5 0 0 1 9 4.5 H0 Z" fill="#ffffff" stroke="#8f2a22" stroke-width="1.5"/></g>
<rect x="51" y="34" width="26" height="60" rx="6" fill="#ffffff" stroke="#6f8796" stroke-width="2.5"/><g transform="translate(64 56)"><path d="M-9 -4.5 H0 V4.5 H-9 A4.5 4.5 0 0 1 -9 -4.5 Z" fill="#d6453a" stroke="#8f2a22" stroke-width="1.5"/><path d="M0 -4.5 H9 A4.5 4.5 0 0 1 9 4.5 H0 Z" fill="#ffffff" stroke="#8f2a22" stroke-width="1.5"/></g><g transform="translate(64 72)"><path d="M-9 -4.5 H0 V4.5 H-9 A4.5 4.5 0 0 1 -9 -4.5 Z" fill="#d6453a" stroke="#8f2a22" stroke-width="1.5"/><path d="M0 -4.5 H9 A4.5 4.5 0 0 1 9 4.5 H0 Z" fill="#ffffff" stroke="#8f2a22" stroke-width="1.5"/></g>
<rect x="83" y="34" width="26" height="60" rx="6" fill="#ffffff" stroke="#6f8796" stroke-width="2.5"/><g transform="translate(96 56)"><path d="M-9 -4.5 H0 V4.5 H-9 A4.5 4.5 0 0 1 -9 -4.5 Z" fill="#d6453a" stroke="#8f2a22" stroke-width="1.5"/><path d="M0 -4.5 H9 A4.5 4.5 0 0 1 9 4.5 H0 Z" fill="#ffffff" stroke="#8f2a22" stroke-width="1.5"/></g><g transform="translate(96 72)"><path d="M-9 -4.5 H0 V4.5 H-9 A4.5 4.5 0 0 1 -9 -4.5 Z" fill="#d6453a" stroke="#8f2a22" stroke-width="1.5"/><path d="M0 -4.5 H9 A4.5 4.5 0 0 1 9 4.5 H0 Z" fill="#ffffff" stroke="#8f2a22" stroke-width="1.5"/></g>
</svg>
